HIERARCHY
ROOT Hips
{
	OFFSET 0.000000 87.230942 0.000000
	CHANNELS 6 Xposition Yposition Zposition Xrotation Yrotation Zrotation
	JOINT Pelvis
	{
		OFFSET 0.000000 0.000000 0.000000
		CHANNELS 3 Xrotation Yrotation Zrotation
		JOINT LeftUpLeg
		{
			OFFSET 12.017000 -9.376404 -2.439400
			CHANNELS 3 Xrotation Yrotation Zrotation
			JOINT LeftLeg
			{
				OFFSET -0.007312 -32.846973 2.110600
				CHANNELS 3 Xrotation Yrotation Zrotation
				JOINT LeftFoot
				{
					OFFSET 0.007312 -32.065170 -0.570400
					CHANNELS 3 Xrotation Yrotation Zrotation
					JOINT LeftToeBase
					{
						OFFSET 0.728300 -11.045900 13.180700
						CHANNELS 3 Xrotation Yrotation Zrotation
						End Site
						{
							OFFSET 0.000000 17.212589 0.000000
						}
					}
				}
				JOINT LeftPantLeg
				{
					OFFSET 0.002788 -16.709013 -3.143600
					CHANNELS 3 Xrotation Yrotation Zrotation
					End Site
					{
						OFFSET -0.605125 24.528742 0.000000
					}
				}
			}
			JOINT Left_Butt
			{
				OFFSET -6.630234 1.326584 -3.183700
				CHANNELS 3 Xrotation Yrotation Zrotation
				End Site
				{
					OFFSET -0.498041 20.188049 0.000000
				}
			}
		}
		JOINT RightUpLeg
		{
			OFFSET -11.717000 -9.376404 -2.439400
			CHANNELS 3 Xrotation Yrotation Zrotation
			JOINT RightLeg
			{
				OFFSET -0.003241 -32.846912 2.110600
				CHANNELS 3 Xrotation Yrotation Zrotation
				JOINT RightFoot
				{
					OFFSET 0.003241 -32.065136 -0.570500
					CHANNELS 3 Xrotation Yrotation Zrotation
					JOINT RightToeBase
					{
						OFFSET -0.728300 -11.045901 13.180700
						CHANNELS 3 Xrotation Yrotation Zrotation
						End Site
						{
							OFFSET 0.000000 17.212593 0.000000
						}
					}
				}
				JOINT RightPantLeg
				{
					OFFSET 0.008142 -16.708982 -3.143700
					CHANNELS 3 Xrotation Yrotation Zrotation
					End Site
					{
						OFFSET 0.605088 24.528715 0.000000
					}
				}
			}
			JOINT Right_Butt
			{
				OFFSET 6.630732 1.326584 -3.183700
				CHANNELS 3 Xrotation Yrotation Zrotation
				End Site
				{
					OFFSET 0.498015 20.188240 0.000000
				}
			}
		}
	}
	JOINT Spine
	{
		OFFSET -0.062400 7.848404 3.918300
		CHANNELS 3 Xrotation Yrotation Zrotation
		JOINT Spine1
		{
			OFFSET -0.072800 11.422302 0.713400
			CHANNELS 3 Xrotation Yrotation Zrotation
			JOINT Spine2
			{
				OFFSET -0.083200 13.054001 -1.931600
				CHANNELS 3 Xrotation Yrotation Zrotation
				JOINT Neck
				{
					OFFSET -0.092200 14.121796 -5.138800
					CHANNELS 3 Xrotation Yrotation Zrotation
					JOINT Head
					{
						OFFSET 0.000200 10.447403 -0.842000
						CHANNELS 3 Xrotation Yrotation Zrotation
						JOINT Visor
						{
							OFFSET 0.457100 25.671204 16.550400
							CHANNELS 3 Xrotation Yrotation Zrotation
							End Site
							{
								OFFSET 0.000000 26.061493 0.000000
							}
						}
						JOINT HairMidA
						{
							OFFSET 0.459400 31.585403 8.437400
							CHANNELS 3 Xrotation Yrotation Zrotation
							End Site
							{
								OFFSET 0.000000 26.061493 0.000000
							}
						}
						JOINT HairMidB
						{
							OFFSET 0.464000 33.309204 -8.389700
							CHANNELS 3 Xrotation Yrotation Zrotation
							End Site
							{
								OFFSET 0.000000 26.061493 0.000000
							}
						}
						JOINT HairMidC
						{
							OFFSET 0.466600 27.991196 -17.375099
							CHANNELS 3 Xrotation Yrotation Zrotation
							End Site
							{
								OFFSET 0.000000 26.061493 0.000000
							}
						}
						JOINT HairMidD
						{
							OFFSET 0.467700 17.888092 -21.169500
							CHANNELS 3 Xrotation Yrotation Zrotation
							End Site
							{
								OFFSET 0.000000 26.061493 0.000000
							}
						}
						JOINT HairMidE
						{
							OFFSET 5.325700 3.514603 -14.369699
							CHANNELS 3 Xrotation Yrotation Zrotation
							End Site
							{
								OFFSET 0.000000 26.061493 0.000000
							}
						}
						JOINT HairMidF
						{
							OFFSET -4.394100 3.514603 -14.372400
							CHANNELS 3 Xrotation Yrotation Zrotation
							End Site
							{
								OFFSET 0.000000 26.061493 0.000000
							}
						}
						JOINT HairLeftA
						{
							OFFSET 15.319900 25.746506 2.623300
							CHANNELS 3 Xrotation Yrotation Zrotation
							End Site
							{
								OFFSET 0.000000 26.061493 0.000000
							}
						}
						JOINT HairLeftB
						{
							OFFSET 12.619500 29.289398 -8.731499
							CHANNELS 3 Xrotation Yrotation Zrotation
							End Site
							{
								OFFSET 0.000000 26.061493 0.000000
							}
						}
						JOINT HairLeftC
						{
							OFFSET 15.714800 15.959900 2.909800
							CHANNELS 3 Xrotation Yrotation Zrotation
							End Site
							{
								OFFSET 0.000000 26.061493 0.000000
							}
						}
						JOINT HairLeftD
						{
							OFFSET 16.101700 18.437408 -7.553200
							CHANNELS 3 Xrotation Yrotation Zrotation
							End Site
							{
								OFFSET 0.000000 26.061493 0.000000
							}
						}
						JOINT HairLeftE
						{
							OFFSET 9.731900 17.915009 -18.316799
							CHANNELS 3 Xrotation Yrotation Zrotation
							End Site
							{
								OFFSET 0.000000 26.061493 0.000000
							}
						}
						JOINT HairLeftF
						{
							OFFSET 11.204300 4.953598 -9.668100
							CHANNELS 3 Xrotation Yrotation Zrotation
							End Site
							{
								OFFSET 0.000000 26.061493 0.000000
							}
						}
						JOINT HairRightA
						{
							OFFSET -14.397900 25.746307 2.615100
							CHANNELS 3 Xrotation Yrotation Zrotation
							End Site
							{
								OFFSET 0.000000 26.061493 0.000000
							}
						}
						JOINT HairRightB
						{
							OFFSET -11.691200 29.289200 -8.738199
							CHANNELS 3 Xrotation Yrotation Zrotation
							End Site
							{
								OFFSET 0.000000 26.061493 0.000000
							}
						}
						JOINT HairRightC
						{
							OFFSET -14.792900 15.959702 2.901400
							CHANNELS 3 Xrotation Yrotation Zrotation
							End Site
							{
								OFFSET 0.000000 26.061493 0.000000
							}
						}
						JOINT HairRightD
						{
							OFFSET -15.174000 18.437195 -7.561900
							CHANNELS 3 Xrotation Yrotation Zrotation
							End Site
							{
								OFFSET 0.000000 26.061493 0.000000
							}
						}
						JOINT HairRightE
						{
							OFFSET -8.798200 17.914902 -18.322001
							CHANNELS 3 Xrotation Yrotation Zrotation
							End Site
							{
								OFFSET 0.000000 26.061493 0.000000
							}
						}
						JOINT HairRightF
						{
							OFFSET -10.275200 4.953506 -9.674099
							CHANNELS 3 Xrotation Yrotation Zrotation
							End Site
							{
								OFFSET 0.000000 26.061493 0.000000
							}
						}
					}
				}
				JOINT LeftShoulder
				{
					OFFSET 5.133500 7.341202 -1.867600
					CHANNELS 3 Xrotation Yrotation Zrotation
					JOINT LeftArm
					{
						OFFSET 8.072663 0.936867 -2.176600
						CHANNELS 3 Xrotation Yrotation Zrotation
						JOINT LeftForeArm
						{
							OFFSET 31.271999 0.000000 0.000000
							CHANNELS 3 Xrotation Yrotation Zrotation
							JOINT LeftHand
							{
								OFFSET 31.771030 0.000000 0.000000
								CHANNELS 3 Xrotation Yrotation Zrotation
								JOINT LeftHandThumb1
								{
									OFFSET 2.886520 -2.557846 4.416640
									CHANNELS 3 Xrotation Yrotation Zrotation
									JOINT LeftHandThumb2
									{
										OFFSET 2.371025 -1.368912 1.368911
										CHANNELS 3 Xrotation Yrotation Zrotation
										JOINT LeftHandThumb3
										{
											OFFSET 2.243378 -1.295212 1.295213
											CHANNELS 3 Xrotation Yrotation Zrotation
											End Site
											{
												OFFSET -0.332611 2.876945 0.020015
											}
										}
									}
								}
								JOINT LeftHandIndex1
								{
									OFFSET 8.568985 -0.641945 3.119977
									CHANNELS 3 Xrotation Yrotation Zrotation
									JOINT LeftHandIndex2
									{
										OFFSET 3.348503 0.000000 0.000000
										CHANNELS 3 Xrotation Yrotation Zrotation
										JOINT LeftHandIndex3
										{
											OFFSET 3.314552 0.000000 0.000000
											CHANNELS 3 Xrotation Yrotation Zrotation
											End Site
											{
												OFFSET -1.032898 3.075485 0.678796
											}
										}
									}
								}
								JOINT LeftHandMiddle1
								{
									OFFSET 8.124603 0.000000 0.000000
									CHANNELS 3 Xrotation Yrotation Zrotation
									JOINT LeftHandMiddle2
									{
										OFFSET 4.166275 0.000000 0.000000
										CHANNELS 3 Xrotation Yrotation Zrotation
										JOINT LeftHandMiddle3
										{
											OFFSET 3.018135 0.000000 0.000000
											CHANNELS 3 Xrotation Yrotation Zrotation
											End Site
											{
												OFFSET -1.032700 2.767982 0.617226
											}
										}
									}
								}
								JOINT LeftHandRing1
								{
									OFFSET 8.571686 -0.031357 -2.884048
									CHANNELS 3 Xrotation Yrotation Zrotation
									JOINT LeftHandRing2
									{
										OFFSET 3.671181 0.000000 0.000000
										CHANNELS 3 Xrotation Yrotation Zrotation
										JOINT LeftHandRing3
										{
											OFFSET 2.728851 0.000000 0.000000
											CHANNELS 3 Xrotation Yrotation Zrotation
											End Site
											{
												OFFSET -0.815796 2.539223 0.577389
											}
										}
									}
								}
								JOINT LeftHandPinky1
								{
									OFFSET 7.854515 -0.675232 -5.213020
									CHANNELS 3 Xrotation Yrotation Zrotation
									JOINT LeftHandPinky2
									{
										OFFSET 3.068596 0.000000 0.000000
										CHANNELS 3 Xrotation Yrotation Zrotation
										JOINT LeftHandPinky3
										{
											OFFSET 2.396042 0.000000 0.000000
											CHANNELS 3 Xrotation Yrotation Zrotation
											End Site
											{
												OFFSET -0.524597 2.267998 0.567429
											}
										}
									}
								}
							}
							JOINT LeftSleeve
							{
								OFFSET 19.684509 -0.200119 0.476146
								CHANNELS 3 Xrotation Yrotation Zrotation
								End Site
								{
									OFFSET -0.031017 25.731133 -0.002868
								}
							}
						}
					}
				}
				JOINT RightShoulder
				{
					OFFSET -4.395900 7.341202 -1.870200
					CHANNELS 3 Xrotation Yrotation Zrotation
					JOINT RightArm
					{
						OFFSET -8.071453 0.936867 -2.181100
						CHANNELS 3 Xrotation Yrotation Zrotation
						JOINT RightForeArm
						{
							OFFSET -31.272011 0.000000 0.000000
							CHANNELS 3 Xrotation Yrotation Zrotation
							JOINT RightHand
							{
								OFFSET -31.771019 0.000000 0.000000
								CHANNELS 3 Xrotation Yrotation Zrotation
								JOINT RightHandThumb1
								{
									OFFSET -2.886520 -2.557808 4.416626
									CHANNELS 3 Xrotation Yrotation Zrotation
									JOINT RightHandThumb2
									{
										OFFSET -2.371056 -1.368927 1.368928
										CHANNELS 3 Xrotation Yrotation Zrotation
										JOINT RightHandThumb3
										{
											OFFSET -2.243362 -1.295204 1.295206
											CHANNELS 3 Xrotation Yrotation Zrotation
											End Site
											{
												OFFSET 0.332642 2.876938 0.020047
											}
										}
									}
								}
								JOINT RightHandIndex1
								{
									OFFSET -8.568993 -0.641953 3.120017
									CHANNELS 3 Xrotation Yrotation Zrotation
									JOINT RightHandIndex2
									{
										OFFSET -3.348518 0.000000 0.000000
										CHANNELS 3 Xrotation Yrotation Zrotation
										JOINT RightHandIndex3
										{
											OFFSET -3.314552 0.000000 0.000000
											CHANNELS 3 Xrotation Yrotation Zrotation
											End Site
											{
												OFFSET 1.032898 3.075478 0.678804
											}
										}
									}
								}
								JOINT RightHandMiddle1
								{
									OFFSET -8.124588 0.000000 0.000000
									CHANNELS 3 Xrotation Yrotation Zrotation
									JOINT RightHandMiddle2
									{
										OFFSET -4.166275 0.000000 0.000000
										CHANNELS 3 Xrotation Yrotation Zrotation
										JOINT RightHandMiddle3
										{
											OFFSET -3.018097 0.000000 0.000000
											CHANNELS 3 Xrotation Yrotation Zrotation
											End Site
											{
												OFFSET 1.032700 2.767937 0.617197
											}
										}
									}
								}
								JOINT RightHandRing1
								{
									OFFSET -8.571747 -0.031349 -2.884061
									CHANNELS 3 Xrotation Yrotation Zrotation
									JOINT RightHandRing2
									{
										OFFSET -3.671204 0.000000 0.000000
										CHANNELS 3 Xrotation Yrotation Zrotation
										JOINT RightHandRing3
										{
											OFFSET -2.728874 0.000000 0.000000
											CHANNELS 3 Xrotation Yrotation Zrotation
											End Site
											{
												OFFSET 0.815804 2.539261 0.577413
											}
										}
									}
								}
								JOINT RightHandPinky1
								{
									OFFSET -7.854561 -0.675247 -5.212970
									CHANNELS 3 Xrotation Yrotation Zrotation
									JOINT RightHandPinky2
									{
										OFFSET -3.068550 0.000000 0.000000
										CHANNELS 3 Xrotation Yrotation Zrotation
										JOINT RightHandPinky3
										{
											OFFSET -2.395981 0.000000 0.000000
											CHANNELS 3 Xrotation Yrotation Zrotation
											End Site
											{
												OFFSET 0.524605 2.267952 0.567413
											}
										}
									}
								}
							}
							JOINT RightSleeve
							{
								OFFSET -19.684753 -0.200165 0.476065
								CHANNELS 3 Xrotation Yrotation Zrotation
								End Site
								{
									OFFSET 0.031342 25.731255 -0.002917
								}
							}
						}
					}
				}
				JOINT Hood
				{
					OFFSET 0.369700 14.447800 -5.317800
					CHANNELS 3 Xrotation Yrotation Zrotation
					JOINT Hood1
					{
						OFFSET 0.001700 -5.553802 -5.895100
						CHANNELS 3 Xrotation Yrotation Zrotation
						JOINT Hood2
						{
							OFFSET -0.000200 -8.380501 0.763600
							CHANNELS 3 Xrotation Yrotation Zrotation
							End Site
							{
								OFFSET 0.000000 8.415215 0.000000
							}
						}
					}
				}
				JOINT Left_Breast
				{
					OFFSET 5.682500 3.120102 3.188800
					CHANNELS 3 Xrotation Yrotation Zrotation
					End Site
					{
						OFFSET 0.000000 10.528564 0.000000
					}
				}
				JOINT Right_Breast
				{
					OFFSET -4.947600 3.120102 3.185900
					CHANNELS 3 Xrotation Yrotation Zrotation
					End Site
					{
						OFFSET 0.000000 10.528564 0.000000
					}
				}
				JOINT Whistle
				{
					OFFSET 0.368200 11.471298 0.095400
					CHANNELS 3 Xrotation Yrotation Zrotation
					JOINT Whistle1
					{
						OFFSET -0.002000 -6.349899 7.479800
						CHANNELS 3 Xrotation Yrotation Zrotation
						JOINT Whistle2
						{
							OFFSET -0.001300 -8.217598 4.717600
							CHANNELS 3 Xrotation Yrotation Zrotation
							End Site
							{
								OFFSET 0.000000 9.475479 0.000000
							}
						}
					}
				}
			}
		}
		JOINT Belly
		{
			OFFSET 0.212400 1.593002 3.163700
			CHANNELS 3 Xrotation Yrotation Zrotation
			End Site
			{
				OFFSET 0.000000 7.496635 0.000000
			}
		}
	}
	JOINT FitGrandmaFacialAnim_Joint
	{
		OFFSET 1.150000 -86.211197 -1.220100
		CHANNELS 3 Xrotation Yrotation Zrotation
		End Site
		{
			OFFSET 0.000000 31.666618 0.000000
		}
	}
}
MOTION
Frames: 4
Frame Time: 0.016667
-152.535004 100.001495 -30.271458 56.811410 -20.650857 -322.561175 -0.000001 0.000000 -0.000000 -45.914844 -2.322715 5.585317 -0.964634 12.254706 4.875777 40.403899 -13.143762 -27.868753 0.000001 0.000001 0.000000 -0.000001 0.000003 0.000001 -0.000000 -0.000002 0.000001 -3.597309 -15.736078 7.990392 91.440373 0.241316 3.415563 31.773142 8.848678 31.899056 -0.000000 -0.000001 0.000002 -0.000002 0.000000 0.000001 0.000002 -0.000000 0.000000 1.280921 5.430257 -0.584036 3.846161 4.202553 -5.325233 3.812200 4.126745 -5.409958 -1.988393 4.852309 -11.238561 -10.490097 3.366424 1.908023 0.000002 0.000000 -0.000000 0.000002 0.000000 -0.000000 0.000002 0.000000 -0.000000 0.000002 0.000000 -0.000000 0.000002 0.000000 -0.000000 0.000002 0.000000 -0.000000 0.000002 0.000000 -0.000000 0.000002 0.000000 -0.000000 0.000002 0.000000 -0.000000 0.000002 0.000000 -0.000000 0.000002 0.000000 -0.000000 0.000002 0.000000 -0.000000 0.000002 0.000000 -0.000000 0.000002 0.000000 -0.000000 0.000002 0.000000 -0.000000 0.000002 0.000000 -0.000000 0.000002 0.000000 -0.000000 0.000002 0.000000 -0.000000 0.000002 0.000000 -0.000000 5.714378 -14.034638 23.310358 -211.011892 -149.880319 -213.800603 -0.000025 -44.177701 -0.000024 -68.450967 -25.935903 15.353534 -18.038253 6.424219 -2.444378 15.886871 4.597539 19.092522 0.000004 0.000001 0.000001 6.710670 3.857781 -25.621213 0.311541 1.886683 -18.750527 0.000003 0.000001 -0.000001 1.294734 5.948193 -37.842233 0.838006 3.021129 -30.998984 -0.000001 0.000001 -0.000001 1.594715 6.302975 -42.575079 0.972548 3.234246 -33.464628 0.000000 0.000002 -0.000001 -3.007523 16.130120 -30.324507 1.538344 3.957888 -42.466814 0.000002 -0.000001 0.000001 -0.000000 0.000000 -0.000002 3.974071 19.454961 -10.877459 -18.976086 37.091376 18.152643 -0.000009 2.430744 -0.000008 -11.101694 8.828446 -7.350675 -32.494970 -11.446275 13.858406 12.598399 -19.187301 -18.306268 -0.000001 0.000001 0.000001 0.340092 -3.894730 20.247469 0.334012 -1.733596 21.810204 0.000006 -0.000000 -0.000001 0.689370 -4.639593 30.384814 0.662622 -2.396268 30.910496 0.000003 -0.000001 -0.000000 1.041464 -5.155236 38.076252 0.460588 -2.021189 25.671814 0.000004 -0.000002 -0.000001 -8.861408 -15.919375 26.277608 1.010517 -2.898678 38.431190 -0.000005 0.000002 -0.000000 -0.000001 0.000001 0.000001 0.000000 0.000000 0.000001 0.000000 0.000000 0.000001 0.000000 0.000000 0.000001 0.000000 0.000000 0.000001 0.000000 0.000000 0.000001 0.000000 -0.000000 0.000002 -0.000002 -0.000000 0.000002 -0.000002 -0.000000 0.000002 -0.000000 0.000000 0.000000 -0.000001 0.000000 -0.000000 
-154.411575 102.208183 -31.071857 49.884232 -9.516459 -329.568157 0.000002 0.000001 0.000001 -44.340202 -1.684927 6.759540 -0.329124 12.234148 2.724976 45.162153 -14.193587 -25.364944 -0.000002 0.000000 -0.000000 0.000000 0.000002 0.000000 0.000001 0.000001 -0.000000 -4.005603 -14.089058 11.457395 93.857864 0.902780 2.534966 29.587973 8.122148 31.780979 -0.000002 -0.000000 -0.000001 0.000001 -0.000002 -0.000002 0.000002 -0.000002 -0.000001 1.603607 5.383435 1.805140 4.754931 3.984752 -2.358232 4.728931 3.966670 -2.453107 -5.065621 6.143750 -11.308215 -10.874331 8.174081 2.540209 -0.000000 0.000001 0.000001 -0.000000 0.000001 0.000001 -0.000000 0.000001 0.000001 -0.000000 0.000001 0.000001 -0.000000 0.000001 0.000001 -0.000000 0.000001 0.000001 -0.000000 0.000001 0.000001 -0.000000 0.000001 0.000001 -0.000000 0.000001 0.000001 -0.000000 0.000001 0.000001 -0.000000 0.000001 0.000001 -0.000000 0.000001 0.000001 -0.000000 0.000001 0.000001 -0.000000 0.000001 0.000001 -0.000000 0.000001 0.000001 -0.000000 0.000001 0.000001 -0.000000 0.000001 0.000001 -0.000000 0.000001 0.000001 -0.000000 0.000001 0.000001 4.913541 -13.405798 24.165498 -214.059126 -140.088983 -224.671040 -0.000013 -50.947009 -0.000022 -64.933475 -23.840335 15.174350 -19.014296 7.407519 -4.757640 15.828253 4.863631 19.143287 0.000000 0.000001 -0.000001 6.703810 3.921813 -28.449232 0.337783 1.962257 -19.531990 -0.000003 -0.000003 0.000002 1.485278 6.180066 -40.808703 0.881468 3.092264 -31.814540 0.000001 -0.000000 0.000002 1.810405 6.526091 -45.711929 1.047438 3.344605 -34.769727 0.000001 -0.000000 0.000000 -2.481627 16.541058 -33.730486 1.602210 4.026386 -43.384204 -0.000000 0.000001 0.000002 0.000001 -0.000001 0.000002 4.150262 18.857322 -12.849913 -21.453585 37.080564 28.054374 0.000005 4.969160 -0.000028 -10.626584 8.907373 -5.143359 -28.667042 -9.835373 13.468072 11.956530 -20.870239 -17.493673 -0.000001 0.000001 -0.000001 0.400574 -4.049736 22.295279 0.398657 -1.887034 23.856092 -0.000003 0.000001 0.000001 0.795514 -4.811375 32.870125 0.777086 -2.577637 33.547758 -0.000000 -0.000001 -0.000000 1.127314 -5.261115 39.754559 0.585271 -2.262181 29.007445 0.000001 -0.000004 -0.000001 -8.123218 -15.892344 27.809003 1.159854 -3.077273 41.295580 -0.000001 0.000000 -0.000001 -0.000000 0.000000 -0.000002 0.000000 0.000001 -0.000000 0.000000 0.000001 -0.000000 0.000000 0.000001 -0.000000 0.000000 0.000001 -0.000000 0.000000 0.000001 -0.000000 0.000000 0.000001 0.000000 -0.000002 0.000001 0.000000 -0.000002 0.000001 0.000000 0.000000 0.000001 -0.000000 0.000002 0.000001 0.000001 
-156.885635 104.171913 -32.491444 43.532552 3.043837 -333.906310 -0.000001 0.000000 -0.000002 -41.400895 -0.016719 9.969120 1.007263 12.410955 -3.164456 45.524215 -18.659486 -23.516947 0.000001 0.000000 0.000000 0.000000 0.000000 -0.000001 -0.000000 0.000001 -0.000002 -4.838711 -10.524273 14.602239 96.542825 -1.534775 1.339632 24.616082 8.185545 31.521323 0.000001 -0.000001 0.000001 -0.000001 0.000001 0.000001 0.000000 -0.000003 -0.000001 1.565859 5.161919 3.543685 4.733389 4.003298 0.009121 4.710810 4.037439 -0.086101 -7.324592 7.491002 -12.527140 -12.302542 12.031912 4.451914 0.000002 0.000001 0.000000 0.000002 0.000001 0.000000 0.000002 0.000001 0.000000 0.000002 0.000001 0.000000 0.000002 0.000001 0.000000 0.000002 0.000001 0.000000 0.000002 0.000001 0.000000 0.000002 0.000001 0.000000 0.000002 0.000001 0.000000 0.000002 0.000001 0.000000 0.000002 0.000001 0.000000 0.000002 0.000001 0.000000 0.000002 0.000001 0.000000 0.000002 0.000001 0.000000 0.000002 0.000001 0.000000 0.000002 0.000001 0.000000 0.000002 0.000001 0.000000 0.000002 0.000001 0.000000 0.000002 0.000001 0.000000 3.652810 -11.597326 25.740616 -225.751904 -129.180966 -243.230440 -0.000016 -55.363464 -0.000012 -56.494093 -18.004382 14.651951 -19.988250 8.565137 -7.207637 15.761606 5.171484 19.200119 -0.000000 0.000002 -0.000000 6.684128 3.990126 -31.501888 0.368551 2.046908 -20.411978 -0.000002 0.000001 0.000001 1.704392 6.419306 -44.017465 0.931510 3.171352 -32.730164 0.000001 -0.000000 -0.000002 2.057017 6.754382 -49.112503 1.134653 3.466651 -36.237811 0.000000 -0.000000 0.000000 -1.894869 16.964867 -37.443165 1.675084 4.101928 -44.412359 0.000004 -0.000004 0.000001 0.000001 0.000001 0.000002 4.533427 20.490892 -15.525664 -24.178591 33.076216 39.746138 -0.000004 6.094184 0.000003 -8.625356 8.759827 -7.308098 -24.860434 -8.167026 12.974660 11.336110 -22.442668 -16.707283 -0.000002 0.000001 0.000001 0.464538 -4.197926 24.282046 0.466539 -2.033559 25.840877 -0.000001 -0.000001 0.000003 0.906254 -4.974430 35.296580 0.897005 -2.749785 36.128118 0.000001 -0.000002 -0.000006 1.212933 -5.360724 41.372013 0.722135 -2.492881 32.305647 -0.000000 0.000001 0.000003 -7.389531 -15.825816 29.277514 1.315494 -3.245644 44.117046 -0.000000 -0.000000 -0.000001 0.000002 -0.000001 0.000000 -0.000001 -0.000000 0.000001 -0.000001 -0.000000 0.000001 -0.000001 -0.000000 0.000001 -0.000001 -0.000000 0.000001 -0.000001 -0.000000 0.000001 -0.000001 -0.000000 0.000001 -0.000002 0.000000 -0.000001 -0.000002 0.000000 -0.000001 0.000002 0.000001 0.000001 -0.000001 0.000000 -0.000002 
-159.266068 105.407234 -33.693378 39.415331 15.453530 -333.497892 -0.000000 0.000000 0.000003 -39.904431 0.034797 7.704253 -0.011418 11.919279 -0.258395 44.591303 -17.762201 -28.258070 0.000001 -0.000000 -0.000000 0.000000 -0.000000 0.000002 0.000000 -0.000000 0.000002 -7.330441 -6.536104 15.004110 98.980233 -3.494842 -0.057201 20.129413 5.545755 30.909591 0.000000 0.000000 0.000001 -0.000001 0.000003 -0.000004 0.000001 0.000000 0.000000 1.223055 5.068699 3.646060 3.914598 3.910734 -0.031326 3.891969 3.938023 -0.112941 -9.840543 8.086202 -11.444781 -13.226744 15.401699 5.248542 -0.000001 -0.000002 -0.000002 -0.000001 -0.000002 -0.000002 -0.000001 -0.000002 -0.000002 -0.000001 -0.000002 -0.000002 -0.000001 -0.000002 -0.000002 -0.000001 -0.000002 -0.000002 -0.000001 -0.000002 -0.000002 -0.000001 -0.000002 -0.000002 -0.000001 -0.000002 -0.000002 -0.000001 -0.000002 -0.000002 -0.000001 -0.000002 -0.000002 -0.000001 -0.000002 -0.000002 -0.000001 -0.000002 -0.000002 -0.000001 -0.000002 -0.000002 -0.000001 -0.000002 -0.000002 -0.000001 -0.000002 -0.000002 -0.000001 -0.000002 -0.000002 -0.000001 -0.000002 -0.000002 -0.000001 -0.000002 -0.000002 2.267911 -7.366467 28.629038 -243.977608 -123.110909 -267.194651 -0.000008 -62.653803 -0.000019 -46.512919 -12.626781 12.122874 -20.922328 9.891850 -9.758172 15.688074 5.515768 19.262170 -0.000004 -0.000000 -0.000000 6.650452 4.066030 -34.736983 0.403673 2.138866 -21.373612 0.000001 -0.000001 0.000002 1.951189 6.659466 -47.423984 0.987451 3.256633 -33.728099 0.000000 -0.000004 0.000003 2.333016 6.980948 -52.728603 1.233394 3.597246 -37.840641 -0.000000 -0.000003 -0.000001 -1.250394 17.392863 -41.410607 1.755907 4.182611 -45.531158 0.000001 0.000002 0.000002 -0.000001 -0.000001 0.000004 4.017701 20.366065 -11.020315 -23.170594 34.626505 44.997003 -0.000005 6.982774 -0.000003 -6.820986 7.299879 -8.107467 -21.185891 -6.505018 12.393436 10.756144 -23.864490 -15.969696 0.000001 0.000001 0.000000 0.529307 -4.335105 26.149854 0.534986 -2.169073 27.706601 -0.000002 -0.000001 0.000001 1.017296 -5.124232 37.592470 1.017796 -2.907845 38.575119 0.000003 0.000001 -0.000001 1.295385 -5.451472 42.882124 0.865538 -2.706178 35.466614 0.000005 0.000000 -0.000004 -6.683693 -15.725109 30.640577 1.471630 -3.399014 46.810824 -0.000003 -0.000001 0.000001 -0.000002 0.000000 -0.000000 0.000002 0.000000 0.000002 0.000002 0.000000 0.000002 0.000002 0.000000 0.000002 0.000002 0.000000 0.000002 0.000002 0.000000 0.000002 0.000002 0.000000 0.000000 0.000003 -0.000001 -0.000002 0.000003 -0.000001 -0.000002 -0.000001 0.000000 -0.000001 -0.000000 0.000000 0.000003 
